<svg width="522" height="75.001" viewBox="0 0 522 75.001" xmlns="http://www.w3.org/2000/svg"><g id="svgGroup" stroke-linecap="round" fill-rule="evenodd" font-size="9pt" stroke="#000" stroke-width="0.25mm" fill="#000" style="stroke:#000;stroke-width:0.25mm;fill:#000"><path d="M 282.8 74 L 240.8 74 L 240.8 1 L 282.8 1 L 282.8 9.2 L 249.7 9.2 L 249.7 31.8 L 279.3 31.8 L 279.3 39.9 L 249.7 39.9 L 249.7 65.8 L 282.8 65.8 L 282.8 74 Z M 299.6 54 L 299.6 21 A 27.47 27.47 0 0 1 300.103 15.612 A 19.887 19.887 0 0 1 302.25 9.7 Q 304.9 5 309.75 2.5 A 21.978 21.978 0 0 1 316.126 0.413 A 29.844 29.844 0 0 1 321.2 0 A 28.795 28.795 0 0 1 326.63 0.488 A 21.134 21.134 0 0 1 332.6 2.55 Q 337.4 5.1 340 9.8 A 20.295 20.295 0 0 1 342.171 16.016 A 27.661 27.661 0 0 1 342.6 21 L 333.6 21 A 18.963 18.963 0 0 0 333.25 17.239 Q 332.534 13.701 330.35 11.45 Q 327.195 8.199 321.543 8.103 A 20.378 20.378 0 0 0 321.2 8.1 Q 315.965 8.1 312.738 10.698 A 10.536 10.536 0 0 0 311.95 11.4 A 10.644 10.644 0 0 0 309.207 16.146 Q 308.6 18.261 308.6 20.9 L 308.6 54 A 18.414 18.414 0 0 0 308.961 57.762 Q 309.445 60.084 310.581 61.851 A 10.181 10.181 0 0 0 311.95 63.55 Q 315.262 66.863 321.068 66.9 A 20.637 20.637 0 0 0 321.2 66.9 A 16.658 16.658 0 0 0 324.924 66.509 Q 327.543 65.908 329.434 64.386 A 10.109 10.109 0 0 0 330.35 63.55 A 10.876 10.876 0 0 0 332.967 58.919 Q 333.6 56.737 333.6 54 L 342.6 54 A 26.595 26.595 0 0 1 342.029 59.638 A 20.41 20.41 0 0 1 340 65.15 Q 337.4 69.9 332.6 72.45 A 21.297 21.297 0 0 1 326.271 74.579 A 29.125 29.125 0 0 1 321.2 75 A 29.346 29.346 0 0 1 315.578 74.487 A 21.727 21.727 0 0 1 309.75 72.5 Q 304.9 70 302.25 65.25 A 20.547 20.547 0 0 1 299.973 58.629 A 27.597 27.597 0 0 1 299.6 54 Z M 189 74 L 180 74 L 180 1 L 202.6 1 A 27.021 27.021 0 0 1 208.521 1.622 A 21.205 21.205 0 0 1 214 3.65 Q 218.9 6.3 221.6 11 A 20.16 20.16 0 0 1 224.03 18.174 A 26.218 26.218 0 0 1 224.3 22 A 23.771 23.771 0 0 1 223.426 28.577 A 19.461 19.461 0 0 1 220.45 34.7 A 19.473 19.473 0 0 1 210.206 41.937 A 23.91 23.91 0 0 1 210 42 L 225.3 74 L 214.7 74 L 200.7 43 L 189 43 L 189 74 Z M 429 74 L 420 74 L 420 1 L 442.6 1 A 27.021 27.021 0 0 1 448.521 1.622 A 21.205 21.205 0 0 1 454 3.65 Q 458.9 6.3 461.6 11 A 20.16 20.16 0 0 1 464.03 18.174 A 26.218 26.218 0 0 1 464.3 22 A 23.771 23.771 0 0 1 463.426 28.577 A 19.461 19.461 0 0 1 460.45 34.7 A 19.473 19.473 0 0 1 450.206 41.937 A 23.91 23.91 0 0 1 450 42 L 465.3 74 L 454.7 74 L 440.7 43 L 429 43 L 429 74 Z M 125 74 L 115.8 74 L 134.8 1 L 146.9 1 L 165.8 74 L 156.7 74 L 151.9 54.6 L 129.8 54.6 L 125 74 Z M 18.9 74 L 0 74 L 0 1 L 18.9 1 A 31.416 31.416 0 0 1 24.739 1.517 A 22.874 22.874 0 0 1 31.15 3.7 Q 36.3 6.4 39.15 11.3 A 20.727 20.727 0 0 1 41.648 18.412 A 27.532 27.532 0 0 1 42 22.9 L 42 52 A 26.57 26.57 0 0 1 41.374 57.897 A 20.604 20.604 0 0 1 39.15 63.65 Q 36.3 68.6 31.15 71.3 A 22.967 22.967 0 0 1 24.544 73.52 A 31.6 31.6 0 0 1 18.9 74 Z M 498.9 74 L 480 74 L 480 1 L 498.9 1 A 31.416 31.416 0 0 1 504.739 1.517 A 22.874 22.874 0 0 1 511.15 3.7 Q 516.3 6.4 519.15 11.3 A 20.727 20.727 0 0 1 521.648 18.412 A 27.532 27.532 0 0 1 522 22.9 L 522 52 A 26.57 26.57 0 0 1 521.374 57.897 A 20.604 20.604 0 0 1 519.15 63.65 Q 516.3 68.6 511.15 71.3 A 22.967 22.967 0 0 1 504.544 73.52 A 31.6 31.6 0 0 1 498.9 74 Z M 59.6 54 L 59.6 21 A 28.58 28.58 0 0 1 60.071 15.679 A 20.423 20.423 0 0 1 62.15 9.7 Q 64.7 5 69.45 2.5 A 21.032 21.032 0 0 1 75.379 0.479 A 29.2 29.2 0 0 1 80.8 0 A 29.2 29.2 0 0 1 86.221 0.479 A 21.032 21.032 0 0 1 92.15 2.5 Q 96.9 5 99.45 9.7 Q 102 14.4 102 20.9 L 102 54 A 27.853 27.853 0 0 1 101.476 59.532 A 20.699 20.699 0 0 1 99.45 65.25 Q 96.9 70 92.15 72.5 A 21.032 21.032 0 0 1 86.221 74.522 A 29.2 29.2 0 0 1 80.8 75 A 29.2 29.2 0 0 1 75.379 74.522 A 21.032 21.032 0 0 1 69.45 72.5 Q 64.7 70 62.15 65.25 Q 59.6 60.5 59.6 54 Z M 359.6 54 L 359.6 21 A 28.58 28.58 0 0 1 360.071 15.679 A 20.423 20.423 0 0 1 362.15 9.7 Q 364.7 5 369.45 2.5 A 21.032 21.032 0 0 1 375.379 0.479 A 29.2 29.2 0 0 1 380.8 0 A 29.2 29.2 0 0 1 386.221 0.479 A 21.032 21.032 0 0 1 392.15 2.5 Q 396.9 5 399.45 9.7 Q 402 14.4 402 20.9 L 402 54 A 27.853 27.853 0 0 1 401.476 59.532 A 20.699 20.699 0 0 1 399.45 65.25 Q 396.9 70 392.15 72.5 A 21.032 21.032 0 0 1 386.221 74.522 A 29.2 29.2 0 0 1 380.8 75 A 29.2 29.2 0 0 1 375.379 74.522 A 21.032 21.032 0 0 1 369.45 72.5 Q 364.7 70 362.15 65.25 Q 359.6 60.5 359.6 54 Z M 9 9 L 9 66 L 18.9 66 Q 24.806 66 28.43 63.037 A 11.815 11.815 0 0 0 29.25 62.3 A 12.158 12.158 0 0 0 32.516 56.37 Q 32.985 54.435 33 52.148 A 23.049 23.049 0 0 0 33 52 L 33 22.9 A 18.156 18.156 0 0 0 32.537 18.676 A 12.171 12.171 0 0 0 29.25 12.7 Q 25.586 9.085 19.201 9.002 A 23.202 23.202 0 0 0 18.9 9 L 9 9 Z M 489 9 L 489 66 L 498.9 66 Q 504.806 66 508.43 63.037 A 11.815 11.815 0 0 0 509.25 62.3 A 12.158 12.158 0 0 0 512.516 56.37 Q 512.985 54.435 513 52.148 A 23.049 23.049 0 0 0 513 52 L 513 22.9 A 18.156 18.156 0 0 0 512.537 18.676 A 12.171 12.171 0 0 0 509.25 12.7 Q 505.586 9.085 499.201 9.002 A 23.202 23.202 0 0 0 498.9 9 L 489 9 Z M 93 54 L 93 21 A 19.549 19.549 0 0 0 92.661 17.241 Q 92.238 15.084 91.287 13.406 A 10.144 10.144 0 0 0 89.85 11.45 A 10.161 10.161 0 0 0 84.99 8.612 Q 83.105 8.1 80.8 8.1 Q 75.491 8.1 72.36 10.908 A 10.086 10.086 0 0 0 71.8 11.45 A 10.877 10.877 0 0 0 69.257 15.967 Q 68.764 17.635 68.641 19.632 A 22.228 22.228 0 0 0 68.6 21 L 68.6 54 A 19.25 19.25 0 0 0 68.945 57.762 Q 69.384 59.966 70.384 61.671 A 10.141 10.141 0 0 0 71.8 63.55 Q 74.928 66.825 80.541 66.899 A 19.784 19.784 0 0 0 80.8 66.9 A 16.647 16.647 0 0 0 84.376 66.54 Q 86.737 66.02 88.484 64.754 A 9.635 9.635 0 0 0 89.85 63.55 A 10.864 10.864 0 0 0 92.308 59.187 Q 93 56.907 93 54 Z M 393 54 L 393 21 A 19.549 19.549 0 0 0 392.661 17.241 Q 392.238 15.084 391.287 13.406 A 10.144 10.144 0 0 0 389.85 11.45 A 10.161 10.161 0 0 0 384.99 8.612 Q 383.105 8.1 380.8 8.1 Q 375.491 8.1 372.36 10.908 A 10.086 10.086 0 0 0 371.8 11.45 A 10.877 10.877 0 0 0 369.257 15.967 Q 368.764 17.635 368.641 19.632 A 22.228 22.228 0 0 0 368.6 21 L 368.6 54 A 19.25 19.25 0 0 0 368.945 57.762 Q 369.384 59.966 370.384 61.671 A 10.141 10.141 0 0 0 371.8 63.55 Q 374.928 66.825 380.541 66.899 A 19.784 19.784 0 0 0 380.8 66.9 A 16.647 16.647 0 0 0 384.376 66.54 Q 386.737 66.02 388.484 64.754 A 9.635 9.635 0 0 0 389.85 63.55 A 10.864 10.864 0 0 0 392.308 59.187 Q 393 56.907 393 54 Z M 137.2 24.4 L 131.6 47 L 150 47 L 144.4 24.5 A 450.805 450.805 0 0 1 143.644 21.432 Q 142.575 17.025 141.9 13.8 A 429.868 429.868 0 0 1 141.54 12.063 Q 141.093 9.883 140.897 8.777 A 26.057 26.057 0 0 1 140.8 8.2 A 28.758 28.758 0 0 1 140.679 8.913 Q 140.468 10.083 140.006 12.326 A 447.807 447.807 0 0 1 139.7 13.8 Q 138.8 18.1 137.2 24.4 Z M 189 9.1 L 189 34.9 L 202.6 34.9 Q 208.2 34.9 211.6 31.35 A 12.009 12.009 0 0 0 214.746 25.004 A 17.008 17.008 0 0 0 215 22 Q 215 16.1 211.6 12.6 A 11.366 11.366 0 0 0 204.824 9.25 A 15.943 15.943 0 0 0 202.6 9.1 L 189 9.1 Z M 429 9.1 L 429 34.9 L 442.6 34.9 Q 448.2 34.9 451.6 31.35 A 12.009 12.009 0 0 0 454.746 25.004 A 17.008 17.008 0 0 0 455 22 Q 455 16.1 451.6 12.6 A 11.366 11.366 0 0 0 444.824 9.25 A 15.943 15.943 0 0 0 442.6 9.1 L 429 9.1 Z" vector-effect="non-scaling-stroke"/></g></svg>