<svg width="156.6" height="22.5" viewBox="0 0 156.6 22.5" xmlns="http://www.w3.org/2000/svg"><g id="svgGroup" stroke-linecap="round" fill-rule="evenodd" font-size="9pt" stroke="#000" stroke-width="0.25mm" fill="#000" style="stroke:#000;stroke-width:0.25mm;fill:#000"><path d="M 84.84 22.2 L 72.24 22.2 L 72.24 0.3 L 84.84 0.3 L 84.84 2.76 L 74.91 2.76 L 74.91 9.54 L 83.79 9.54 L 83.79 11.97 L 74.91 11.97 L 74.91 19.74 L 84.84 19.74 L 84.84 22.2 Z M 89.88 16.2 L 89.88 6.3 A 8.241 8.241 0 0 1 90.031 4.683 A 5.966 5.966 0 0 1 90.675 2.91 Q 91.47 1.5 92.925 0.75 A 6.593 6.593 0 0 1 94.838 0.124 A 8.953 8.953 0 0 1 96.36 0 Q 98.34 0 99.78 0.765 Q 101.22 1.53 102 2.94 A 6.088 6.088 0 0 1 102.651 4.805 A 8.298 8.298 0 0 1 102.78 6.3 L 100.08 6.3 Q 100.08 4.899 99.527 3.983 A 3.045 3.045 0 0 0 99.105 3.435 A 3.179 3.179 0 0 0 97.576 2.571 Q 97.024 2.43 96.36 2.43 Q 94.79 2.43 93.821 3.209 A 3.161 3.161 0 0 0 93.585 3.42 A 3.193 3.193 0 0 0 92.762 4.844 Q 92.58 5.478 92.58 6.27 L 92.58 16.2 A 5.524 5.524 0 0 0 92.688 17.329 Q 92.91 18.39 93.585 19.065 A 3.313 3.313 0 0 0 95.187 19.94 Q 95.707 20.066 96.32 20.07 A 6.187 6.187 0 0 0 96.36 20.07 A 4.997 4.997 0 0 0 97.477 19.953 Q 98.263 19.773 98.83 19.316 A 3.033 3.033 0 0 0 99.105 19.065 A 3.263 3.263 0 0 0 99.89 17.676 Q 100.038 17.164 100.071 16.551 A 6.641 6.641 0 0 0 100.08 16.2 L 102.78 16.2 A 7.978 7.978 0 0 1 102.609 17.891 A 6.123 6.123 0 0 1 102 19.545 Q 101.22 20.97 99.78 21.735 Q 98.34 22.5 96.36 22.5 A 8.804 8.804 0 0 1 94.673 22.346 A 6.518 6.518 0 0 1 92.925 21.75 Q 91.47 21 90.675 19.575 A 6.164 6.164 0 0 1 89.992 17.589 A 8.279 8.279 0 0 1 89.88 16.2 Z M 56.7 22.2 L 54 22.2 L 54 0.3 L 60.78 0.3 Q 62.73 0.3 64.2 1.095 Q 65.67 1.89 66.48 3.3 A 6.048 6.048 0 0 1 67.209 5.452 A 7.865 7.865 0 0 1 67.29 6.6 A 7.131 7.131 0 0 1 67.028 8.573 A 5.838 5.838 0 0 1 66.135 10.41 A 5.842 5.842 0 0 1 63.062 12.581 A 7.174 7.174 0 0 1 63 12.6 L 67.59 22.2 L 64.41 22.2 L 60.21 12.9 L 56.7 12.9 L 56.7 22.2 Z M 128.7 22.2 L 126 22.2 L 126 0.3 L 132.78 0.3 Q 134.73 0.3 136.2 1.095 Q 137.67 1.89 138.48 3.3 A 6.048 6.048 0 0 1 139.209 5.452 A 7.865 7.865 0 0 1 139.29 6.6 A 7.131 7.131 0 0 1 139.028 8.573 A 5.838 5.838 0 0 1 138.135 10.41 A 5.842 5.842 0 0 1 135.062 12.581 A 7.174 7.174 0 0 1 135 12.6 L 139.59 22.2 L 136.41 22.2 L 132.21 12.9 L 128.7 12.9 L 128.7 22.2 Z M 37.5 22.2 L 34.74 22.2 L 40.44 0.3 L 44.07 0.3 L 49.74 22.2 L 47.01 22.2 L 45.57 16.38 L 38.94 16.38 L 37.5 22.2 Z M 5.67 22.2 L 0 22.2 L 0 0.3 L 5.67 0.3 A 9.425 9.425 0 0 1 7.422 0.455 A 6.862 6.862 0 0 1 9.345 1.11 Q 10.89 1.92 11.745 3.39 A 6.218 6.218 0 0 1 12.494 5.524 A 8.259 8.259 0 0 1 12.6 6.87 L 12.6 15.6 A 7.971 7.971 0 0 1 12.412 17.369 A 6.181 6.181 0 0 1 11.745 19.095 Q 10.89 20.58 9.345 21.39 A 6.89 6.89 0 0 1 7.363 22.056 A 9.48 9.48 0 0 1 5.67 22.2 Z M 149.67 22.2 L 144 22.2 L 144 0.3 L 149.67 0.3 A 9.425 9.425 0 0 1 151.422 0.455 A 6.862 6.862 0 0 1 153.345 1.11 Q 154.89 1.92 155.745 3.39 A 6.218 6.218 0 0 1 156.494 5.524 A 8.259 8.259 0 0 1 156.6 6.87 L 156.6 15.6 A 7.971 7.971 0 0 1 156.412 17.369 A 6.181 6.181 0 0 1 155.745 19.095 Q 154.89 20.58 153.345 21.39 A 6.89 6.89 0 0 1 151.363 22.056 A 9.48 9.48 0 0 1 149.67 22.2 Z M 17.88 16.2 L 17.88 6.3 Q 17.88 4.32 18.645 2.91 Q 19.41 1.5 20.835 0.75 A 6.31 6.31 0 0 1 22.614 0.144 A 8.76 8.76 0 0 1 24.24 0 A 8.76 8.76 0 0 1 25.866 0.144 A 6.31 6.31 0 0 1 27.645 0.75 Q 29.07 1.5 29.835 2.91 A 6.168 6.168 0 0 1 30.474 4.775 A 8.457 8.457 0 0 1 30.6 6.27 L 30.6 16.2 A 8.356 8.356 0 0 1 30.443 17.86 A 6.21 6.21 0 0 1 29.835 19.575 Q 29.07 21 27.645 21.75 A 6.31 6.31 0 0 1 25.866 22.357 A 8.76 8.76 0 0 1 24.24 22.5 A 8.76 8.76 0 0 1 22.614 22.357 A 6.31 6.31 0 0 1 20.835 21.75 Q 19.41 21 18.645 19.575 A 6.279 6.279 0 0 1 18.006 17.698 A 8.499 8.499 0 0 1 17.88 16.2 Z M 107.88 16.2 L 107.88 6.3 Q 107.88 4.32 108.645 2.91 Q 109.41 1.5 110.835 0.75 A 6.31 6.31 0 0 1 112.614 0.144 A 8.76 8.76 0 0 1 114.24 0 A 8.76 8.76 0 0 1 115.866 0.144 A 6.31 6.31 0 0 1 117.645 0.75 Q 119.07 1.5 119.835 2.91 A 6.168 6.168 0 0 1 120.474 4.775 A 8.457 8.457 0 0 1 120.6 6.27 L 120.6 16.2 A 8.356 8.356 0 0 1 120.443 17.86 A 6.21 6.21 0 0 1 119.835 19.575 Q 119.07 21 117.645 21.75 A 6.31 6.31 0 0 1 115.866 22.357 A 8.76 8.76 0 0 1 114.24 22.5 A 8.76 8.76 0 0 1 112.614 22.357 A 6.31 6.31 0 0 1 110.835 21.75 Q 109.41 21 108.645 19.575 A 6.279 6.279 0 0 1 108.006 17.698 A 8.499 8.499 0 0 1 107.88 16.2 Z M 2.7 2.7 L 2.7 19.8 L 5.67 19.8 A 5.707 5.707 0 0 0 6.93 19.669 Q 7.86 19.459 8.529 18.911 A 3.545 3.545 0 0 0 8.775 18.69 Q 9.887 17.593 9.9 15.644 A 6.913 6.913 0 0 0 9.9 15.6 L 9.9 6.87 A 5.447 5.447 0 0 0 9.761 5.603 A 3.651 3.651 0 0 0 8.775 3.81 Q 7.65 2.7 5.67 2.7 L 2.7 2.7 Z M 146.7 2.7 L 146.7 19.8 L 149.67 19.8 A 5.707 5.707 0 0 0 150.93 19.669 Q 151.86 19.459 152.529 18.911 A 3.545 3.545 0 0 0 152.775 18.69 Q 153.887 17.593 153.9 15.644 A 6.913 6.913 0 0 0 153.9 15.6 L 153.9 6.87 A 5.447 5.447 0 0 0 153.761 5.603 A 3.651 3.651 0 0 0 152.775 3.81 Q 151.65 2.7 149.67 2.7 L 146.7 2.7 Z M 27.9 16.2 L 27.9 6.3 A 5.865 5.865 0 0 0 27.798 5.172 Q 27.59 4.111 26.955 3.435 A 3.048 3.048 0 0 0 25.497 2.583 Q 25.002 2.449 24.411 2.433 A 6.026 6.026 0 0 0 24.24 2.43 A 4.829 4.829 0 0 0 23.136 2.549 Q 22.295 2.746 21.708 3.272 A 3.026 3.026 0 0 0 21.54 3.435 A 3.263 3.263 0 0 0 20.777 4.79 Q 20.629 5.29 20.592 5.89 A 6.668 6.668 0 0 0 20.58 6.3 L 20.58 16.2 A 5.775 5.775 0 0 0 20.683 17.329 Q 20.815 17.99 21.115 18.501 A 3.042 3.042 0 0 0 21.54 19.065 Q 22.5 20.07 24.24 20.07 A 4.994 4.994 0 0 0 25.313 19.962 Q 26.021 19.806 26.545 19.426 A 2.891 2.891 0 0 0 26.955 19.065 Q 27.782 18.185 27.885 16.65 A 6.722 6.722 0 0 0 27.9 16.2 Z M 117.9 16.2 L 117.9 6.3 A 5.865 5.865 0 0 0 117.798 5.172 Q 117.59 4.111 116.955 3.435 A 3.048 3.048 0 0 0 115.497 2.583 Q 115.002 2.449 114.411 2.433 A 6.026 6.026 0 0 0 114.24 2.43 A 4.829 4.829 0 0 0 113.136 2.549 Q 112.295 2.746 111.708 3.272 A 3.026 3.026 0 0 0 111.54 3.435 A 3.263 3.263 0 0 0 110.777 4.79 Q 110.629 5.29 110.592 5.89 A 6.668 6.668 0 0 0 110.58 6.3 L 110.58 16.2 A 5.775 5.775 0 0 0 110.683 17.329 Q 110.815 17.99 111.115 18.501 A 3.042 3.042 0 0 0 111.54 19.065 Q 112.5 20.07 114.24 20.07 A 4.994 4.994 0 0 0 115.313 19.962 Q 116.021 19.806 116.545 19.426 A 2.891 2.891 0 0 0 116.955 19.065 Q 117.782 18.185 117.885 16.65 A 6.722 6.722 0 0 0 117.9 16.2 Z M 41.16 7.32 L 39.48 14.1 L 45 14.1 L 43.32 7.35 Q 42.852 5.477 42.583 4.203 A 46.529 46.529 0 0 1 42.57 4.14 A 128.958 128.958 0 0 1 42.462 3.619 Q 42.328 2.965 42.269 2.633 A 7.817 7.817 0 0 1 42.24 2.46 A 8.627 8.627 0 0 1 42.204 2.674 Q 42.14 3.025 42.002 3.698 A 134.331 134.331 0 0 1 41.91 4.14 Q 41.643 5.415 41.171 7.275 A 137.04 137.04 0 0 1 41.16 7.32 Z M 56.7 2.73 L 56.7 10.47 L 60.78 10.47 A 4.302 4.302 0 0 0 61.992 10.308 A 3.314 3.314 0 0 0 63.48 9.405 A 3.603 3.603 0 0 0 64.424 7.501 A 5.102 5.102 0 0 0 64.5 6.6 Q 64.5 4.83 63.48 3.78 A 3.41 3.41 0 0 0 61.447 2.775 A 4.783 4.783 0 0 0 60.78 2.73 L 56.7 2.73 Z M 128.7 2.73 L 128.7 10.47 L 132.78 10.47 A 4.302 4.302 0 0 0 133.992 10.308 A 3.314 3.314 0 0 0 135.48 9.405 A 3.603 3.603 0 0 0 136.424 7.501 A 5.102 5.102 0 0 0 136.5 6.6 Q 136.5 4.83 135.48 3.78 A 3.41 3.41 0 0 0 133.447 2.775 A 4.783 4.783 0 0 0 132.78 2.73 L 128.7 2.73 Z"/></g></svg>